<?xml version="1.0" encoding="UTF-8"?>
<svg version="1.1" xmlns="http://www.w3.org/2000/svg" width="39" height="100">
<path d="M0 0 C2.5 0.125 2.5 0.125 3.5 1.125 C3.40903444 3.99188248 3.26232012 6.82800515 3.0625 9.6875 C3.01029297 10.49380859 2.95808594 11.30011719 2.90429688 12.13085938 C2.77422624 14.12921738 2.63770944 16.12715386 2.5 18.125 C6.05975472 18.16882735 9.06277155 18.0161333 12.5 17.125 C13.5 18.125 13.5 18.125 13.5625 20.6875 C13.541875 21.491875 13.52125 22.29625 13.5 23.125 C10.40645403 24.11935406 8.59720845 24.00340996 5.5 23.125 C5.48160568 23.9613649 5.46321136 24.7977298 5.44425964 25.65943909 C5.26798367 33.56021594 5.07810679 41.46052543 4.87313366 49.36061192 C4.76824175 53.42167201 4.66852267 57.4827191 4.58081055 61.54418945 C4.49589219 65.46733365 4.39714398 69.38991271 4.28899574 73.31248283 C4.25022984 74.80539026 4.21635999 76.2984335 4.18758202 77.79156685 C4.14626285 79.89099681 4.08719077 81.98925896 4.02416992 84.08813477 C3.99530197 85.28060318 3.96643402 86.47307159 3.93669128 87.70167542 C3.42561171 91.70814709 2.23885856 94.49829264 0.5 98.125 C-1.5 97.125 -1.5 97.125 -2.58813477 95.17236328 C-3.86433184 90.90743907 -3.95016647 86.79929 -4.08984375 82.3671875 C-4.12665756 81.40448944 -4.16347137 80.44179138 -4.20140076 79.44992065 C-4.61649438 68.05348475 -4.84494637 56.65158621 -5.0625 45.25 C-5.10586581 43.0859324 -5.14948453 40.92186984 -5.19335938 38.7578125 C-5.29847154 33.54692829 -5.40022057 28.33598893 -5.5 23.125 C-6.61375 23.33125 -7.7275 23.5375 -8.875 23.75 C-10.07125 23.87375 -11.2675 23.9975 -12.5 24.125 C-13.16 23.465 -13.82 22.805 -14.5 22.125 C-14.125 20 -14.125 20 -13.5 18.125 C-10.40281114 17.12947501 -8.59728725 17.22578757 -5.5 18.125 C-4.51 18.125 -3.52 18.125 -2.5 18.125 C-2.62568359 16.30162109 -2.62568359 16.30162109 -2.75390625 14.44140625 C-2.85704703 12.85678879 -2.95989661 11.27215235 -3.0625 9.6875 C-3.11857422 8.88505859 -3.17464844 8.08261719 -3.23242188 7.25585938 C-3.3616295 5.21437889 -3.4351273 3.16953631 -3.5 1.125 C-2.5 0.125 -2.5 0.125 0 0 Z " fill="#F4F4F4" transform="translate(19.5,0.875)"/>
</svg>
